<?xml version="1.0" encoding="iso-8859-1"?>
<!-- Generator: Adobe Illustrator 19.0.0, SVG Export Plug-In . SVG Version: 6.00 Build 0)  -->
<svg version="1.1" id="Capa_1" xmlns="http://www.w3.org/2000/svg" xmlns:xlink="http://www.w3.org/1999/xlink" x="0px" y="0px"
	 viewBox="0 0 512 512" style="enable-background:new 0 0 512 512;" xml:space="preserve">
<path style="fill:#713708;" d="M376,90H196c-8.291,0-15-6.709-15-15s6.709-15,15-15h180c8.291,0,15,6.709,15,15S384.291,90,376,90z"
	/>
<g>
	<path style="fill:#994C0F;" d="M76,90H15C6.709,90,0,83.291,0,75s6.709-15,15-15h61c8.291,0,15,6.709,15,15S84.291,90,76,90z"/>
	<path style="fill:#994C0F;" d="M391,15c0,8.399-6.599,15-15,15H15C6.599,30,0,23.399,0,15C0,6.599,6.599,0,15,0h361
		C384.401,0,391,6.599,391,15z"/>
</g>
<path style="fill:#713708;" d="M391,15c0,8.399-6.599,15-15,15H136V0h240C384.401,0,391,6.599,391,15z"/>
<rect x="61" style="fill:#FE9923;" width="150" height="272"/>
<g>
	<rect x="91" style="fill:#FEA832;" width="30" height="272"/>
	<rect x="151" style="fill:#FEA832;" width="30" height="272"/>
</g>
<circle style="fill:#E5741A;" cx="286" cy="257" r="105"/>
<circle style="fill:#FE8821;" cx="286" cy="257" r="75"/>
<path style="fill:#FE9923;" d="M482,422H211v-75c0-74.558,60.441-135,135-135l0,0c74.558,0,136,60.441,136,135V422z"/>
<path style="fill:#FEA832;" d="M452,422H241v-75c0-57.99,47.01-105,105-105l0,0c57.99,0,106,47.01,106,105V422z"/>
<path style="fill:#FE9923;" d="M421,422H271v-75c0-41.421,33.579-75,75-75l0,0c41.421,0,75,33.579,75,75V422z"/>
<path style="fill:#FEA832;" d="M391,422h-90v-75c0-24.853,20.147-45,45-45l0,0c24.853,0,45,20.147,45,45V422z"/>
<path style="fill:#FCBF29;" d="M346,422H46c-8.291,0-15-6.709-15-15v-60c0-90.981,74.019-165,165-165s165,74.019,165,165v60
	C361,415.291,354.291,422,346,422z"/>
<path style="fill:#FEDB41;" d="M323.188,422H68.813c-4.315,0-7.813-3.498-7.813-7.813V347c0-74.558,60.441-135,135-135l0,0
	c74.558,0,135,60.441,135,135v67.188C331,418.502,327.502,422,323.188,422z"/>
<path style="fill:#FCBF29;" d="M286,422H106c-8.291,0-15-6.709-15-15v-60c0-57.891,47.109-105,105-105s105,47.109,105,105v60
	C301,415.291,294.291,422,286,422z"/>
<path style="fill:#FEDB41;" d="M271,422H121v-75c0-41.421,33.579-75,75-75l0,0c41.421,0,75,33.579,75,75V422z"/>
<path style="fill:#FCBF29;" d="M226,422h-60c-8.291,0-15-6.709-15-15v-60c0-24.814,20.186-45,45-45s45,20.186,45,45v60
	C241,415.291,234.291,422,226,422z"/>
<path style="fill:#FEDB41;" d="M196,422L196,422c-8.284,0-15-6.716-15-15v-60c0-8.284,6.716-15,15-15l0,0c8.284,0,15,6.716,15,15v60
	C211,415.284,204.284,422,196,422z"/>
<path style="fill:#D9D9D9;" d="M376,422H136c-8.401,0-15,6.599-15,15c0,41.4,33.6,75,75,75h120c41.4,0,75-33.6,75-75
	C391,428.599,384.401,422,376,422z"/>
<path style="fill:#C8C6CD;" d="M391,437c0,41.4-33.6,75-75,75h-60v-90h120C384.401,422,391,428.599,391,437z"/>
<path style="fill:#E5E5E5;" d="M512,407c0,24.899-20.099,45-45,45H46c-24.901,0-46-20.101-46-45c0-8.401,6.599-15,15-15h482
	C505.401,392,512,398.599,512,407z"/>
<path style="fill:#D9D9D9;" d="M512,407c0,24.899-20.099,45-45,45H256v-60h241C505.401,392,512,398.599,512,407z"/>
<g>
</g>
<g>
</g>
<g>
</g>
<g>
</g>
<g>
</g>
<g>
</g>
<g>
</g>
<g>
</g>
<g>
</g>
<g>
</g>
<g>
</g>
<g>
</g>
<g>
</g>
<g>
</g>
<g>
</g>
</svg>
