<?xml version="1.0"?>
<svg xmlns="http://www.w3.org/2000/svg" xmlns:xlink="http://www.w3.org/1999/xlink" version="1.1" id="Capa_1" x="0px" y="0px" viewBox="0 0 512 512" style="enable-background:new 0 0 512 512;" xml:space="preserve" width="512px" height="512px" class=""><g><path style="fill:#FFB02F" d="M439.01,183.01c0,41.429-29.082,107.171-86.426,195.387  c-41.909,64.462-84.407,118.228-84.827,118.768L256,512l-11.757-14.836c-0.42-0.54-42.918-54.305-84.827-118.768  C102.072,290.181,72.99,224.439,72.99,183.01C72.99,82.098,155.088,0,256,0S439.01,82.098,439.01,183.01z" data-original="#E70C6A" class="active-path" data-old_color="#FFB02E"/><path style="fill:#FF8400" d="M439.01,183.01c0,41.429-29.082,107.171-86.426,195.387  c-41.909,64.462-84.407,118.228-84.827,118.768L256,512V0C356.912,0,439.01,82.098,439.01,183.01z" data-original="#B40754" class="" data-old_color="#FFBA00"/><circle style="fill:#FFEED4" cx="256" cy="178.951" r="102.442" data-original="#FFD9A7" class="" data-old_color="#FDEDD4"/><path style="fill:#F7E2A9" d="M358.442,178.951c0,56.575-45.867,102.442-102.442,102.442V76.509  C312.575,76.509,358.442,122.377,358.442,178.951z" data-original="#FFC273" class="" data-old_color="#FFBA00"/></g> </svg>
